<?xml version="1.0" encoding="UTF-8"?>
<svg width="149px" height="106px" viewBox="0 0 149 106" version="1.1" xmlns="http://www.w3.org/2000/svg" xmlns:xlink="http://www.w3.org/1999/xlink">
    <!-- Generator: Sketch 53.1 (72631) - https://sketchapp.com -->
    <title>delivery-bike v2</title>
    <desc>Created with Sketch.</desc>
    <g id="Page-1" stroke="none" stroke-width="1" fill="none" fill-rule="evenodd">
        <g id="Artboard-Copy-13" transform="translate(-666.000000, -430.000000)">
            <g id="delivery-bike-v2" transform="translate(668.000000, 431.000000)">
                <path d="M83.1571354,14.0344594 L94.9665544,20.792027 L93.764143,22.7138358 L94.9665544,23.5610891 L93.2360378,25.3340061 C96.0458878,26.7566592 98.2318954,28.1747429 99.7940607,29.5882573 C101.356226,31.0017717 103.446116,33.4527045 106.063732,36.9410557 C108.313661,38.2613148 109.873247,39.0985285 110.742488,39.4526969 C113.393255,40.5327399 114.35757,38.9763694 115.228356,41.0312081 C116.099142,43.0860467 115.592593,44.4309804 115.004401,44.7369543 C113.568963,45.4836594 110.065626,43.2255289 109.975898,43.3695427 C109.778773,43.6859325 107.894804,42.4738752 104.323991,39.733371 C103.846476,38.9494316 103.314043,38.5060725 102.726691,38.4032938 C99.718915,37.876973 96.1561998,38.2378941 94.4703851,37.7645463 C92.2907672,37.1525471 90.1056273,36.2672077 87.9149653,35.108528 L85.6849094,40.1339714 C91.7842872,41.0827764 95.793868,41.9843721 97.7136517,42.8387585 C99.6334354,43.6931448 101.206717,45.2717384 102.433495,47.5745392 C101.006505,51.8352716 99.6481711,55.324891 98.3584927,58.0433975 C97.0688142,60.7619039 94.4230385,64.5104326 90.4211654,69.2889837 L90.4065852,70.9762365 L98.8428491,77.5988859 L81.7827396,76.7985332 L79.9502119,72.2172139 L82.20653,66.0575635 L78.9217548,62.3832866 C76.2616205,56.6226052 74.0147478,52.5024191 72.1811368,50.0227282 C71.9395822,49.6960609 73.4057554,50.4190305 74.8708347,50.3837656 C76.3434546,50.3483192 77.8149975,49.5548006 77.5611455,49.2871681 C76.9325758,48.6244761 74.6366744,49.4795347 71.466755,48.4817484 C70.4181711,48.1516887 68.445621,47.3004782 65.5491048,45.9281171 L65.2644485,39.5051468 C69.5780337,31.2799429 72.9201231,25.4374482 75.2907168,21.9776628 C77.6613106,18.5178773 80.2834501,15.8701429 83.1571354,14.0344594 Z M85.6198945,51.3675982 L87.4854407,54.5780731 L89.0906781,50.5649795 L85.6198945,51.3675982 Z" id="Combined-Shape" fill="#FFFFFF"></path>
                <polygon id="Path-67" fill="#9CD3AF" points="93.2316891 24.8811804 94.7090092 23.2505444 93.5061832 22.1080004 94.7090092 21.2693961 86.682822 17.4090132"></polygon>
                <path d="M75.4461599,49.3497997 C75.817528,49.9201678 75.9351691,50.2954455 75.7990831,50.4756328 C75.3515256,51.0682297 74.0233725,51.3130267 74.0265097,51.7310708 C74.0457301,54.2922904 75.6589053,56.8577133 76.175108,58.2755217 C76.8753356,60.1987753 78.7220539,62.9631322 81.7152628,66.5685926 L79.8625782,72.0784666 C80.5864837,74.8192652 81.2913619,76.3725581 81.9772129,76.7383453 C82.5335038,77.0350338 85.2150171,78.1368113 87.6372891,78.1858521 C88.0133872,78.1934665 88.2307315,77.8885339 88.2893219,77.2710544 C84.4788176,76.3966428 82.1736913,75.6453352 81.373943,75.0171317 C81.0313149,74.7479968 80.3785448,72.2073185 83.1298051,69.9638775 C83.7350724,69.4703287 83.4732923,67.7402071 83.9540582,67.2387563 C84.2387135,66.9418538 84.2362196,65.4456995 83.9136414,65.2530927 C82.8595369,64.6237021 81.264073,61.7896407 79.1272498,56.7509086 C78.4712965,53.1716793 78.128517,51.1363933 78.0989112,50.6450507 C78.0693055,50.153708 77.185055,49.7219577 75.4461599,49.3497997 Z" id="Path-58" fill="#9CD3AF"></path>
                <path d="M112.366621,51.7689076 L110.761384,47.4765004 L117.984952,43.341411 C117.943232,42.7381972 117.960831,42.3248467 118.037749,42.1013596 C118.31516,41.2953296 118.906639,40.8956726 119.27026,40.8047672 C120.042539,40.6116975 121.302195,41.7771719 121.195427,42.5387923 C121.173108,42.6980012 121.085483,43.529637 120.524768,44.0098732 C119.706429,44.7107576 117.120817,46.3607139 112.76793,48.959742 L114.171333,51.3675982 L112.366621,51.7689076 Z" id="Path-64" fill="#FFFFFF"></path>
                <polygon id="Path-70" fill="#FFFFFF" points="113.16924 56.1833105 93.5050811 73.0383037 95.0603109 74.5558117 113.971859 56.6483859"></polygon>
                <path d="M82.5504202,91.4117647 C78.6867474,91.4117647 75.5546218,88.2796391 75.5546218,84.4159664 C75.5546218,80.5522937 78.6867474,77.4201681 82.5504202,77.4201681 C86.4140929,77.4201681 89.5462185,80.5522937 89.5462185,84.4159664 C89.5462185,88.2796391 86.4140929,91.4117647 82.5504202,91.4117647 Z M82.0840336,89.5462185 C84.6598154,89.5462185 86.7478992,87.2493264 86.7478992,84.4159664 C86.7478992,81.5826064 84.6598154,79.2857143 82.0840336,79.2857143 C79.5082518,79.2857143 77.4201681,81.5826064 77.4201681,84.4159664 C77.4201681,87.2493264 79.5082518,89.5462185 82.0840336,89.5462185 Z" id="Combined-Shape" fill="#FFFFFF"></path>
                <ellipse id="Oval" fill="#9CD3AF" cx="57.8319328" cy="82.5504202" rx="17.7226891" ry="17.2563025"></ellipse>
                <ellipse id="Oval-Copy-4" fill="#9CD3AF" cx="125.92437" cy="82.5504202" rx="17.7226891" ry="17.2563025"></ellipse>
                <circle id="Oval" fill="#FFFFFF" cx="125.92437" cy="83.9495798" r="2.79831933"></circle>
                <path d="M65.49569,44.5937963 C67.1479554,45.2154501 68.3019307,45.624799 68.9576159,45.8218428 C70.963475,46.4246355 72.3631178,46.612815 73.6882371,46.6899213 C75.6630986,46.804835 77.453001,46.4912836 79.0579441,45.7492671 C78.8001489,47.2386739 79.3627603,48.2394917 80.7457783,48.7517206 C82.1287963,49.2639495 85.1779691,49.6008295 89.8932969,49.7623608 C87.4156327,50.9856986 84.7486622,51.3181217 81.8923855,50.75963 C79.6441959,50.3200384 76.1086494,48.993807 70.3080605,47.8362185 C69.3296922,47.6409714 66.9953405,46.9655761 65.8764341,46.0494763 C65.5169877,45.7551811 65.390073,45.2699545 65.49569,44.5937963 Z" id="Path-61" fill="#9CD3AF"></path>
                <path d="M75.4461599,50.1636701 C75.4456427,49.9852542 75.2146075,49.4632533 74.6930082,49.2499016 C73.1176892,48.6055432 69.672596,47.8919326 67.7896007,47.0051208 C66.1186218,46.2181597 65.3631688,45.7653922 65.5232418,45.6468181 C64.110835,45.5391728 63.1542838,45.6635986 62.6535883,46.0200955 C61.9025449,46.5548408 61.1949078,47.2443385 61.8605406,48.7300272 C62.0900422,49.2422734 62.7488792,49.698945 63.561867,50.0411697 C65.1068214,50.6915134 67.265167,51.2492736 68.9623769,51.3990274 C70.1292147,51.5019837 71.9951681,51.6211483 73.2161377,51.4201605 C74.7056557,51.1749661 75.4473023,50.5578337 75.4461599,50.1636701 Z" id="Path-62" fill="#FFFFFF"></path>
                <circle id="Oval" fill="#FFFFFF" cx="57.8319328" cy="83.9495798" r="2.79831933"></circle>
                <path d="M74.3471076,24.2521008 C70.0119333,32.5408069 68.1946125,38.4364914 68.8951451,41.9391546 C69.9459441,47.1931493 87.3520995,40.9033894 83.7256555,41.9348227 C82.0323187,42.4164416 81.9101898,45.0726224 77.2413273,46.1328478 C75.9099826,46.4351753 72.6211168,46.3131761 67.3747298,45.7668502 C64.5960163,44.6297386 64.4730027,41.3934613 67.0056891,36.0580183 C67.5843296,34.8390346 68.5362903,32.514306 69.3361394,31.2598185 C71.1368453,28.435582 72.807168,26.0996761 74.3471076,24.2521008 Z" id="Path-54" fill="#CBE6CD"></path>
                <path d="M84.0733993,14.0344594 C83.7865914,14.3965071 84.5278394,15.1374497 86.2971431,16.2572872 C88.0664469,17.3771247 90.8841052,18.8887046 94.750118,20.792027 C94.4878088,20.6769251 94.7950224,20.5689808 95.6717587,20.4681939 C96.5484951,20.3674071 97.7767735,20.3571227 99.3565939,20.4373409 C102.113351,19.1153408 103.450487,18.1436634 103.368003,17.5223089 C102.942082,14.3138372 102.230674,15.6693831 101.494601,13.5366585 C100.873822,11.7379919 101.094353,6.39085572 100.818039,5.2527297 C100.111525,2.34263517 98.563363,0.776043373 96.1735519,0.552954305 C94.248039,0.454132898 92.9373416,0.381872729 92.2414596,0.3361738 C91.5023103,0.287633494 90.6814158,-0.0676087232 90.2964261,0.0114224937 C87.9125101,0.50079603 86.1044825,2.11835354 85.1365708,3.32824313 C83.6030744,5.24511359 83.2486839,8.81385236 84.0733993,14.0344594 Z" id="Path-44" fill="#FFFFFF"></path>
                <path d="M57.8319328,103.537815 C46.4984928,103.537815 37.3109244,94.1414383 37.3109244,82.5504202 C37.3109244,70.959402 46.4984928,61.5630252 57.8319328,61.5630252 C69.1653728,61.5630252 78.3529412,70.959402 78.3529412,82.5504202 C78.3529412,94.1414383 69.1653728,103.537815 57.8319328,103.537815 Z M57.8319328,100.739496 C67.6199037,100.739496 75.5546218,92.5959693 75.5546218,82.5504202 C75.5546218,72.5048711 67.6199037,64.3613445 57.8319328,64.3613445 C48.0439619,64.3613445 40.1092437,72.5048711 40.1092437,82.5504202 C40.1092437,92.5959693 48.0439619,100.739496 57.8319328,100.739496 Z" id="Combined-Shape" stroke="#1D3382" fill="#FFFFFF"></path>
                <path d="M125.457983,103.537815 C114.382121,103.537815 105.403361,94.1414383 105.403361,82.5504202 C105.403361,70.959402 114.382121,61.5630252 125.457983,61.5630252 C136.533845,61.5630252 145.512605,70.959402 145.512605,82.5504202 C145.512605,94.1414383 136.533845,103.537815 125.457983,103.537815 Z M125.457983,100.739496 C134.988376,100.739496 142.714286,92.5959693 142.714286,82.5504202 C142.714286,72.5048711 134.988376,64.3613445 125.457983,64.3613445 C115.92759,64.3613445 108.201681,72.5048711 108.201681,82.5504202 C108.201681,92.5959693 115.92759,100.739496 125.457983,100.739496 Z" id="Combined-Shape" stroke="#1D3382" fill="#FFFFFF"></path>
                <path d="M88.5633191,1.42706676 C87.7729147,4.30457705 87.4238917,6.66691719 87.5162502,8.51408717 C87.5764997,9.71907603 88.1306389,12.7458048 90.3801206,13.8017434 C91.1793394,14.1769081 92.7855093,14.0196955 95.1986302,13.3301057 C94.1914173,14.7547638 93.2791416,15.533907 92.4618031,15.6675354 C90.7586124,15.9459937 88.0605995,14.8643514 87.6740164,14.5083696 C86.0260768,12.9908782 85.5261576,10.299672 85.6198945,8.02618722 C85.7703582,4.37685463 86.7514997,2.17714781 88.5633191,1.42706676 Z" id="Path-66" fill="#CBE6CD"></path>
                <path d="M79.0579441,88.2880594 L89.5315468,79.4596034 C93.6347654,79.2139422 95.5800318,79.0049467 95.3673462,78.8326167 C95.2895352,78.7695699 95.7538729,78.1790003 95.055253,78.0908121 C94.247945,77.988904 91.8201737,77.9699232 87.7719389,78.0338699 L77.854016,86.682822 L79.0579441,88.2880594 Z" id="Path-71" fill="#FFFFFF"></path>
                <polygon id="Path-65" fill="#FFFFFF" points="72.9102233 57.788548 82.6697284 84.8823529 84.1178791 84.2749658 74.6435411 56.6483859"></polygon>
                <rect id="Rectangle" fill="#FFFFFF" x="57.8319328" y="83.0168067" width="26.1176471" height="1.86554622"></rect>
                <polygon id="Rectangle-Copy" fill="#FFFFFF" transform="translate(66.574427, 72.005786) rotate(-50.000000) translate(-66.574427, -72.005786) " points="53.5156033 71.539399 79.6332504 71.539399 79.6332504 72.4721721 53.5156033 72.4721721"></polygon>
                <path d="M81.8637263,28.374097 C81.4871265,28.0380396 81.3081144,28.0647863 81.3266901,28.4543371 C81.3805534,29.5839011 82.0791375,32.3654961 82.3773683,33.2850411 C82.8298746,34.6802689 84.5691648,36.0201578 87.595239,37.3047078 L88.2880594,35.3497468 C87.1793123,34.9341349 86.2421839,34.3036672 85.4766742,33.4583436 C84.7111645,32.6130201 83.5068485,30.9182712 81.8637263,28.374097 Z" id="Path-63" fill="#CBE6CD"></path>
                <polygon id="Path-59" fill="#FFFFFF" points="125.031165 83.4723471 111.564002 52.1702169 114.774477 51.302521 125.92437 81.8671096 125.92437 83.9495798 125.031165 84.2749658"></polygon>
                <path d="M77.854016,84.8638855 C76.7751247,95.3580078 68.0459131,103.537815 57.4435146,103.537815 C46.1079202,103.537815 36.9204612,94.1947191 36.9204612,82.6697417 C36.9204612,71.1447643 46.1087242,61.8016683 57.4435146,61.8016683 C61.7855835,61.7945892 66.0169261,63.1945383 69.5235601,65.7983781" id="Path" stroke="#1D3382"></path>
                <path d="M70.6304475,66.6173539 C75.2207402,70.6309636 77.8604491,76.496993 77.854016,82.6697284" id="Path" stroke="#1D3382"></path>
                <path d="M74.6435411,84.8553759 C73.5882221,93.5759524 66.2943869,100.32734 57.4534954,100.32734 C47.8869723,100.32734 40.1309361,92.4229192 40.1309361,82.6697392 C40.1309361,72.9165592 47.8861741,65.0121382 57.4534954,65.0121382 C61.0573019,65.0063697 64.5723082,66.1517545 67.5045712,68.2873383" id="Path" stroke="#1D3382"></path>
                <path d="M69.0252101,69.8278288 C73.1071187,73.0487823 75.4516448,77.7378413 75.4461599,82.6697284" id="Path" stroke="#1D3382"></path>
                <circle id="Oval" stroke="#1D3382" cx="57.3872386" cy="83.8736564" r="2.80916553"></circle>
                <path d="M118.656081,63.0368836 C120.88614,62.2168496 123.239177,61.7988683 125.60983,61.8016554 C136.914784,61.8016554 146.076607,71.1447543 146.076607,82.6697353 C146.076607,94.1947163 136.913181,103.537815 125.60983,103.537815 C114.30648,103.537815 105.143053,94.1947163 105.143053,82.6697353 C105.141694,74.6727145 109.622535,67.3781639 116.679718,63.8887087" id="Path" stroke="#1D3382"></path>
                <path d="M119.749049,66.0569366 C121.628622,65.3634262 123.611798,65.0098828 125.60983,65.0121271 C135.139762,65.0121271 142.866132,72.9173643 142.866132,82.6697337 C142.866132,92.422103 135.141353,100.32734 125.60983,100.32734 C116.078308,100.32734 108.353528,92.4229167 108.353528,82.6697337 C108.35203,75.9491191 112.079048,69.8103061 117.967753,66.8340341" id="Path" stroke="#1D3382"></path>
                <path d="M125.162034,81.1006961 C126.571999,80.8730507 127.92831,81.7397285 128.314106,83.1148601 C128.699903,84.4899917 127.992338,85.9356959 126.669721,86.4746845 C125.347103,87.0136732 123.830593,86.4743169 123.145343,85.2212176 C122.460093,83.9681183 122.824305,82.4002986 123.991775,81.577596" id="Path" stroke="#1D3382"></path>
                <circle id="Oval" stroke="#1D3382" cx="125.208521" cy="83.4723471" r="1"></circle>
                <path d="M77.854016,82.6950842 L81.0644909,82.6950842" id="Path" stroke="#1D3382"></path>
                <path d="M60.1964041,82.6950842 L77.854016,82.6950842" id="Path" stroke="#1D3382"></path>
                <path d="M77.854016,85.1029403 L81.8671096,85.1029403" id="Path" stroke="#1D3382"></path>
                <path d="M60.1964041,85.1029403 L77.854016,85.1029403" id="Path" stroke="#1D3382"></path>
                <polygon id="Rectangle" stroke="#1D3382" transform="translate(78.514051, 70.685501) rotate(70.655671) translate(-78.514051, -70.685501) " points="63.9238889 69.868458 93.1009189 69.9292389 93.1042135 71.5025439 63.9271835 71.441763"></polygon>
                <path d="M73.4205145,57.788548 L71.1698114,51.3504862 L71.6260292,51.2933003 C72.276814,53.638827 73.190615,55.2557302 73.8409224,57.6006517 L73.4205145,57.788548 Z" id="Path" stroke="#1D3382"></path>
                <circle id="Oval" stroke="#1D3382" cx="82.268419" cy="83.8736564" r="1"></circle>
                <path d="M57.788548,81.0644909 L74.6435411,60.9990229" id="Path" stroke="#1D3382"></path>
                <path d="M59.3937854,81.0644909 L74.6435411,62.6042603" id="Path" stroke="#1D3382"></path>
                <path d="M86.1248201,81.8671096 C87.3198988,83.2904032 87.5191813,85.255331 86.6323705,86.8715634 C85.7455597,88.4877959 83.9412082,89.4481423 82.0368867,89.3174595 C80.1325652,89.1867767 78.4902204,87.9899031 77.854016,86.2691548" id="Path" stroke="#1D3382"></path>
                <path d="M81.8671096,79.5428052 C82.1338078,79.4872061 82.4042909,79.4592478 82.6753174,79.4592654 C83.5261207,79.4571562 84.3596832,79.7356527 85.0775845,80.2618722" id="Path" stroke="#1D3382"></path>
                <path d="M77.854016,81.8671096 C78.3820796,80.8326703 79.2246314,79.9901185 80.2618722,79.4592535" id="Path" stroke="#1D3382"></path>
                <path d="M87.5748747,80.2618722 C89.114693,82.1940772 89.5151951,84.8365558 88.6205698,87.161278 C87.7259445,89.4860002 85.6774541,91.1258893 83.2720436,91.4429627 C80.8666332,91.760036 78.48412,90.7042273 77.0513973,88.6862886" id="Path" stroke="#1D3382"></path>
                <path d="M81.0644909,77.237783 C83.0214223,76.7380344 85.064407,77.2539692 86.682822,78.6566347" id="Path" stroke="#1D3382"></path>
                <path d="M77.854016,79.4592535 C78.5432683,78.7931542 79.3593884,78.2490741 80.2618722,77.854016" id="Path" stroke="#1D3382"></path>
                <path d="M93.1037717,73.8409224 L113.16924,56.1833105" id="Path" stroke="#1D3382"></path>
                <path d="M87.4854407,78.6566347 L89.0906781,77.0513973" id="Path" stroke="#1D3382"></path>
                <path d="M83.4723471,81.8671096 L86.682822,78.6566347" id="Path" stroke="#1D3382"></path>
                <path d="M77.854016,86.682822 L80.2618722,85.0775845" id="Path" stroke="#1D3382"></path>
                <path d="M94.7090092,74.6435411 L113.971859,56.9859293" id="Path" stroke="#1D3382"></path>
                <path d="M88.2880594,80.2618722 L89.8932969,79.4592535" id="Path" stroke="#1D3382"></path>
                <path d="M83.4723471,84.2749658 L88.2880594,80.2618722" id="Path" stroke="#1D3382"></path>
                <path d="M78.6566347,88.2880594 L81.8671096,85.8802032" id="Path" stroke="#1D3382"></path>
                <path d="M71.5232455,51.3158002 C72.1005372,51.3031178 72.6756275,51.2362582 73.2417532,51.1160078 C73.9479573,50.966369 75.3860033,50.6613362 75.444271,50.0586703 C75.4551476,49.9484967 75.4248484,49.777481 75.1987699,49.5472676 C75.1833413,49.5217819 75.1615655,49.5012972 75.1358408,49.4880698 C74.5003348,49.2126359 68.8848856,48.1783198 65.3088047,45.9000288 C65.3088047,45.9000288 63.5289217,45.1649902 62.223726,46.9409225 C62.1320515,47.0650733 61.7474849,47.6874718 61.8080833,48.2490282 C61.9323877,49.3885847 63.891735,50.0044057 65.3818335,50.4566107 C67.2195722,51.0088399 69.1155157,51.3148922 71.0252512,51.3675982" id="Path" stroke="#1D3382"></path>
                <rect id="Rectangle" stroke="#1D3382" x="88.2880594" y="77.854016" width="7.2235685" height="1.60523744" rx="0.802618722"></rect>
                <circle id="Oval" stroke="#1D3382" cx="112.76793" cy="42.1374829" r="1.20392808"></circle>
                <circle id="Oval" stroke="#1D3382" cx="119.59019" cy="42.5387923" r="1.60523744"></circle>
                <polyline id="Path" stroke="#1D3382" points="118.787571 43.341411 110.761384 47.4765004 112.650638 52.1702169"></polyline>
                <path d="M120.392808,44.1440297 L113.16924,48.959742" id="Path" stroke="#1D3382"></path>
                <polyline id="Path" stroke="#1D3382" points="126.011139 83.0559199 114.171333 51.3675982 111.564002 52.4623463 125.031165 83.4723471"></polyline>
                <path d="M112.366621,48.1571233 L113.971859,51.3675982" id="Path" stroke="#1D3382"></path>
                <path d="M93.2827546,1.97165309 C92.8463725,5.04736301 94.1838554,8.56078939 95.0849562,10.4469798 C95.9860569,12.3331702 95.6411612,15.7505328 92.2755944,16.0236879 C88.9100276,16.296843 86.1816272,14.6871491 85.1752766,8.26006816 C84.168926,1.83298719 91.2692438,0.00359970356 91.2692438,0.00359970356 C91.2692438,0.00359970356 93.5871696,-0.174327025 93.2827546,1.97165309 Z" id="Path" stroke="#1D3382" fill-rule="nonzero"></path>
                <path d="M90.6959156,0 C90.6959156,0 81.4844564,0.239559635 83.8655333,13.6445183" id="Path" stroke="#1D3382"></path>
                <circle id="Oval" fill="#FFFFFF" fill-rule="nonzero" transform="translate(98.728868, 11.630896) rotate(-78.830000) translate(-98.728868, -11.630896) " cx="98.7288684" cy="11.6308959" r="1"></circle>
                <path d="M93.2316891,24.87844 C94.1070451,24.9586714 94.7090092,23.2505444 94.7090092,23.2505444 L87.4854407,17.6576119" id="Path" stroke="#1D3382"></path>
                <path d="M83.4723471,14.447137 C83.4723471,14.447137 91.6141187,22.5162576 93.0614211,25.2885769 C93.0614211,25.2885769 98.6884948,27.0308482 105.945671,36.9204612" id="Path" stroke="#1D3382"></path>
                <path d="M82.6697284,14.447137 C82.6697284,14.447137 75.0416799,21.4263641 74.191727,22.742433 C73.3417741,24.0585019 65.7870799,37.9771491 65.7870799,37.9771491 C65.1258434,39.1330123 64.8768513,40.4861468 65.0822409,41.8075595 C65.4346604,44.0010077 65.6212354,45.7492671 65.6212354,45.7492671" id="Path" stroke="#1D3382"></path>
                <path d="M75.4461599,48.959742 C79.8430617,51.5976745 85.1184779,52.0943714 89.8932969,50.3199852" id="Path" stroke="#1D3382"></path>
                <path d="M89.0906781,50.5649795 C89.0906781,50.5649795 85.8271825,59.2058674 86.8988909,67.4199726" id="Path" stroke="#1D3382" fill="#FFFFFF" fill-rule="nonzero"></path>
                <path d="M85.0775845,40.1309361 C85.0775845,40.1309361 99.2440361,41.1541477 101.932578,47.6912883 C101.932578,47.6912883 99.6870947,59.3677965 90.4497719,69.0252101" id="Path" stroke="#1D3382"></path>
                <path d="M85.6198945,51.6495994 C85.6198945,51.6495994 87.1355931,53.9875203 87.4854407,55.3806918" id="Path" stroke="#1D3382"></path>
                <path d="M73.6890756,51.302521 C73.6890756,51.302521 75.9365634,61.1401218 81.7152628,66.5685926 L80.1799196,71.3679891" id="Path" stroke="#1D3382"></path>
                <path d="M78.6566347,73.0383037 L77.0513973,76.2487786" id="Path" stroke="#1D3382"></path>
                <path d="M90.6955845,69.9706982 C90.6955845,69.9706982 87.8574628,69.2376943 85.7522495,67.4199726 C85.7522495,67.4199726 84.941015,68.8196343 85.0976672,69.4183474 C85.2543194,70.0170605 88.9172627,71.4590877 90.1984537,71.4327092 C90.1984537,71.4359066 90.7107702,70.7556598 90.6955845,69.9706982 Z" id="Path" stroke="#1D3382"></path>
                <path d="M104.340434,39.6671716 C104.340434,39.6671716 105.458201,36.9607814 106.575968,36.9204612 C107.395204,37.2064502 108.048563,37.8697245 108.353527,38.7249956 C108.353527,38.7249956 107.554014,38.5900464 105.940238,40.9335548 C105.940238,40.9335548 105.025842,40.7986056 104.340434,39.6671716 Z" id="Path" stroke="#1D3382"></path>
                <path d="M108.353527,37.7230799 C108.353527,37.7230799 109.22438,39.0270949 111.670012,39.4298724 C114.115644,39.8326499 115.351845,40.0303936 115.518772,41.1321085 C115.685699,42.2338235 115.493576,44.4399871 114.951852,44.6787376 C114.593993,44.8281414 114.219702,44.9183348 113.840058,44.9466484 L111.34482,43.8731826 C111.34482,43.8731826 111.019628,43.4685826 111.34482,42.85986" id="Path" stroke="#1D3382"></path>
                <path d="M105.945671,40.9335548 L108.41491,43.1113612 C108.41491,43.1113612 110.047037,43.7447347 111.564002,42.9095969" id="Path" stroke="#1D3382"></path>
                <path d="M115.577096,41.7361735 L117.984952,42.5387923" id="Path" stroke="#1D3382"></path>
                <path d="M115.577096,42.5387923 L117.984952,43.341411" id="Path" stroke="#1D3382"></path>
                <path d="M31.3021302,76.2741344 L7.2235685,76.2741344" id="Path" stroke="#1D3382" stroke-width="2.5" stroke-linecap="round" stroke-linejoin="round"></path>
                <path d="M31.3021302,91.5238901 L7.2235685,91.5238901" id="Path" stroke="#1D3382" stroke-width="2.5" stroke-linecap="round" stroke-linejoin="round"></path>
                <path d="M24.0785617,83.4977029 L0,83.4977029" id="Path" stroke="#1D3382" stroke-width="2.5" stroke-linecap="round" stroke-linejoin="round"></path>
                <path d="M94.210084,0.159953257 C94.3713423,0.197890792 94.5172427,0.230985236 94.658877,0.260043773 C94.8005113,0.28910231 94.9336133,0.324618299 95.0718347,0.35044811 C95.2100561,0.37627792 95.3508372,0.40695082 95.5027101,0.431166267 C95.654583,0.455381715 95.8175477,0.485247433 95.9992833,0.520763422 C96.0479167,0.530449601 96.1102017,0.54013578 96.181872,0.554665049 L96.4250393,0.609553396 C96.5154805,0.629732935 96.6127474,0.660405835 96.7176933,0.690271554 L96.7577945,0.701572096 L96.8226392,0.722558817 L96.9531816,0.76533944 C97.0385034,0.791169251 97.1238253,0.828299603 97.2168261,0.861394048 C97.3098269,0.894488493 97.3874698,0.935654753 97.4804706,0.973592287 C97.5734715,1.01152982 97.6553804,1.05431044 97.7415555,1.1043557 C98.1019049,1.29695549 98.4307108,1.53813926 98.7176375,1.82032576 C99.0218875,2.12375758 99.2857832,2.46124152 99.5034518,2.82526682 C99.9505383,3.57352415 100.250018,4.43317253 100.447111,5.29282091 C100.631665,6.12534603 100.754825,6.96900062 100.815702,7.81768488 C100.87884,8.61760182 100.901024,9.36101605 100.920648,9.98900332 C100.940272,10.6169906 100.944538,11.1456945 100.9744,11.5137693 C101.004263,11.8818441 101.034979,12.090097 101.034979,12.090097 C101.034979,12.090097 101.040952,12.1425638 101.056309,12.2410399 C101.071667,12.3395161 101.094704,12.4831944 101.141631,12.6672318 C101.191773,12.8908008 101.256167,13.1112951 101.334459,13.3275063 C101.442646,13.613161 101.580699,13.887888 101.746563,14.1476028 C101.931037,14.4303952 102.096326,14.7239939 102.24143,15.0266235 C102.406182,15.3716269 102.550876,15.7248922 102.674865,16.0848386 C102.744158,16.2691564 102.799193,16.4579966 102.839536,16.6498657 C102.876252,16.8302587 102.874511,17.0157724 102.834417,17.1955204 C102.792334,17.3810527 102.714222,17.5575856 102.604048,17.7161526 C102.482541,17.8834679 102.339206,18.0356122 102.177439,18.1689814 C102.005738,18.3106385 101.824782,18.4419305 101.635645,18.5620789 C101.442817,18.687192 101.248284,18.8042333 101.046924,18.9180459 C100.65298,19.1396392 100.235079,19.3206734 99.8003718,19.4580504 C99.380953,19.5876336 98.9444136,19.6609928 98.5034796,19.6759894 C98.3959741,19.6848684 98.2876154,19.6759894 98.180963,19.6816397 C98.0743107,19.68729 97.9685116,19.6776038 97.8635658,19.6711463 L97.7074268,19.6630745 C97.6553804,19.6582314 97.6041873,19.651774 97.5529942,19.6461237 L97.4002681,19.6291729 C97.3755248,19.6291729 97.3499282,19.6243298 97.3251849,19.6194867 L97.2688724,19.6106077 C96.9108549,19.5563478 96.5583491,19.4734489 96.2151476,19.362803 C95.8644748,19.2506047 95.5914448,19.158586 95.3243874,19.0778679 C95.05733,18.9971497 94.7988048,18.9212747 94.4890865,18.8131123 C94.6876304,19.0287426 94.912453,19.2213845 95.158863,19.3870184 C95.435209,19.5663003 95.7363942,19.7086316 96.0538893,19.8099816 C96.4232318,19.9315369 96.8032751,20.0217589 97.1895231,20.0795802 L97.2501016,20.0900736 C97.2765514,20.0949167 97.3047076,20.096531 97.3354235,20.1005669 L97.5000947,20.1191321 C97.5555539,20.1247824 97.6110131,20.132047 97.6707384,20.1368901 L97.8413821,20.1457691 C97.9548601,20.1522266 98.0691914,20.1602984 98.1826695,20.1570696 C98.2961475,20.1538409 98.4155981,20.1570696 98.5324891,20.1514194 C99.0178746,20.1337699 99.4982986,20.0522693 99.9599237,19.9092649 C100.429432,19.7617088 100.880591,19.5662989 101.305449,19.3264798 C101.519607,19.2102457 101.725233,19.0843253 101.926592,18.9519476 C102.132302,18.819816 102.329464,18.6761496 102.51702,18.5217198 C102.711989,18.361034 102.884072,18.1770722 103.028951,17.9744507 C103.173418,17.7664624 103.275831,17.5349171 103.33099,17.291575 C103.383918,17.0522437 103.386527,16.8053964 103.338669,16.5651116 C103.293586,16.3508201 103.232281,16.1398713 103.155227,15.9338956 C103.025362,15.5583623 102.874121,15.1897491 102.702168,14.8296712 C102.547476,14.5092047 102.371946,14.198113 102.176585,13.8981837 C102.029966,13.6679475 101.907651,13.4246205 101.811408,13.1717203 C101.739427,12.9746505 101.680441,12.7735449 101.634792,12.5695628 C101.593837,12.4000547 101.575066,12.263641 101.558002,12.1724295 C101.540938,12.081218 101.537525,12.0311727 101.537525,12.0311727 C101.537525,12.0311727 101.506809,11.8358348 101.480359,11.4814821 C101.453909,11.1271293 101.439405,10.6153762 101.428313,9.98012432 C101.417221,9.34487242 101.387358,8.59984383 101.323367,7.78378325 C101.261104,6.91284553 101.134807,6.04706698 100.945391,5.19273039 C100.740619,4.30483066 100.43346,3.39836574 99.9479786,2.59118417 C99.7089935,2.19272506 99.4196138,1.82327701 99.0862279,1.49099568 C98.7664181,1.17609112 98.3996322,0.90714253 97.9975211,0.692693098 C97.9019606,0.640226296 97.8046937,0.594216946 97.70828,0.547400414 C97.6118663,0.500583883 97.5154526,0.460224804 97.4181857,0.424708815 C97.3209188,0.389192825 97.2270647,0.348026565 97.130651,0.318968028 L96.9881635,0.272958678 L96.9173464,0.249550413 L96.872979,0.237442689 C96.759501,0.20757697 96.6545551,0.175289707 96.5572882,0.156724531 L96.2944969,0.0986074576 C96.2177072,0.0824638261 96.1511562,0.0727776471 96.0982566,0.0630914682 C95.9217236,0.03257299 95.7433309,0.0126228749 95.5641418,0.00336003151 C95.4105745,-0.00238081204 95.2567984,-0.000764380885 95.1034038,0.00820312097 C94.9575035,0.0227323894 94.8158692,0.0404903841 94.670822,0.0638986498 C94.5257749,0.0873069155 94.3713423,0.12524445 94.210084,0.159953257 Z" id="Path" stroke="#1D3382" stroke-width="0.6" fill="#1D3382" fill-rule="nonzero"></path>
                <ellipse id="Oval" fill="#1D3382" fill-rule="nonzero" transform="translate(98.936917, 11.436837) rotate(-78.830000) translate(-98.936917, -11.436837) " cx="98.9369168" cy="11.4368366" rx="1.28743645" ry="1"></ellipse>
                <circle id="Oval" stroke="#1D3382" fill="#1D3382" fill-rule="nonzero" cx="103.830854" cy="16.9508812" r="1"></circle>
                <path d="M90.6914504,70.8907563 C90.5925432,71.0214739 90.5246644,71.1738677 90.4931553,71.335946 C90.4635428,71.5039533 90.4805695,71.6770797 90.5423054,71.8357019 C90.6095467,72.0008398 90.7117001,72.1487282 90.8414428,72.2687658 C90.9811524,72.3957452 91.1357109,72.5045506 91.3015891,72.5926976 L91.9795209,72.9833213 C92.6269459,73.3557563 93.7192636,73.9819668 94.6531148,74.5085726 C95.586966,75.0351784 96.3640454,75.4613133 96.3640454,75.4613133 L96.7953795,75.6951678 L97.0182496,75.8129612 L97.1411248,75.8753224 C97.1792585,75.8952434 97.2199344,75.9177627 97.2614577,75.9411481 C97.4437828,76.046667 97.6203101,76.1623243 97.7902446,76.2875993 C98.1782333,76.576707 98.5322559,76.9106464 98.845276,77.2827803 C98.9225887,77.3718666 98.9950124,77.4652628 99.0622142,77.5625396 C99.0774677,77.5850589 99.0910263,77.6067121 99.104585,77.6283653 L99.1215333,77.6586798 L99.1062798,77.6708056 C99.0873941,77.6767274 99.0681434,77.681357 99.0486556,77.6846636 C98.9586523,77.7018198 98.8673406,77.7108049 98.775788,77.7115136 C98.5491829,77.7121448 98.3227618,77.6982595 98.0978561,77.6699395 C97.9173568,77.6491524 97.7834652,77.6300976 97.6919444,77.6162395 C97.0861574,77.5165154 96.4719026,77.4811044 95.8589861,77.5105719 C96.4462446,77.8076538 96.8546986,77.9904068 97.6182193,78.1168615 C97.7131298,78.1315856 97.8512584,78.1523727 98.0419268,78.174892 C98.2889806,78.2067094 98.5378,78.2220434 98.7868044,78.2207968 C98.9090983,78.2192826 99.0310272,78.2068205 99.1511928,78.1835533 C99.184242,78.1783565 99.2215282,78.1662307 99.2571197,78.1567033 C99.3063816,78.1412543 99.3536196,78.1197314 99.3977905,78.0926099 C99.5028919,78.0409236 99.5829757,77.9478612 99.6197149,77.8347198 C99.6564542,77.7215784 99.6467041,77.5980426 99.5926959,77.4923832 C99.5824689,77.4662117 99.5705798,77.440751 99.5571045,77.416164 L99.5282924,77.3650624 C99.5096493,77.3330157 99.4893113,77.3027012 99.4698208,77.2732529 C99.3926909,77.1612089 99.3095155,77.0536425 99.2206808,76.9510533 C98.8818029,76.5491871 98.4987929,76.1885252 98.079213,75.8761886 C97.893739,75.7384041 97.7007849,75.6114578 97.5012761,75.4959584 C97.4546683,75.4691084 97.4089079,75.4439907 97.3631475,75.4197391 L97.2377301,75.3565118 L97.0216393,75.2430491 L96.5979319,75.0117929 C96.5979319,75.0117929 95.8250895,74.5873902 94.8937806,74.0590522 L92.2244238,72.5355332 L91.546492,72.148374 C91.4053806,72.0740959 91.2681921,71.992278 91.1354958,71.9032598 C91.0336581,71.8327754 90.9418344,71.7482508 90.8626282,71.6520827 C90.7871906,71.5569718 90.7330958,71.4460975 90.7041616,71.3272848 C90.6718716,71.1840465 90.667552,71.0357038 90.6914504,70.8907563 Z" id="Path" stroke="#1D3382" stroke-width="0.5" fill="#1D3382" fill-rule="nonzero"></path>
                <path d="M81.1519735,27.0504202 C81.1464119,27.3390618 81.1734022,27.627402 81.2324184,27.9098217 C81.2992019,28.2202187 81.4018064,28.5215501 81.5381091,28.8075822 C81.579136,28.9006228 81.6467098,29.0369191 81.7319814,29.204229 C81.7730083,29.2858436 81.8228841,29.3797004 81.8767822,29.4760056 L81.9789473,29.6604546 C82.015952,29.729827 82.0593922,29.7967509 82.1004191,29.8661233 C82.180864,30.004052 82.2677446,30.1468775 82.363474,30.2864384 C82.759743,30.8934822 83.2042028,31.4666885 83.6924241,32.0003447 C84.2092084,32.5636485 84.771314,33.0823316 85.3729185,33.5510218 L85.5949465,33.7273093 C85.6681514,33.7868879 85.7469874,33.837489 85.8218012,33.8905385 L86.2730972,34.2120999 L86.7268066,34.503464 L86.9488346,34.6454734 L87.1732759,34.7736083 L87.6076785,35.018452 C87.750066,35.1000666 87.893258,35.1661744 88.0300143,35.2371791 L88.4322389,35.4395833 L88.8103301,35.6101577 C89.2929996,35.8362301 89.7024643,35.9823202 89.9840215,36.0949484 L90.173067,36.1675854 L90.3138457,36.2149218 L90.4304908,36.254913 L90.8793735,36.4058999 L91.1207082,36.4875145 L91.4062877,36.5691291 L92.0973096,36.7650041 C92.6105482,36.887426 93.2146895,37.0408614 93.8815779,37.1551218 C94.0472945,37.1853192 94.2170333,37.2204135 94.3899899,37.2489786 L94.918513,37.3248802 L95.4599073,37.4064947 C95.6425173,37.4317953 95.8275406,37.4456697 96.0133684,37.4660734 L101.390307,38.0112588 C101.974097,38.072559 102.563438,38.0516857 103.141593,37.9492317 C102.594693,37.7320155 102.020753,37.5927616 101.436161,37.5354458 L96.0648531,36.9886281 C95.8814387,36.9682244 95.6980243,36.9551661 95.5186321,36.9298656 L94.9852823,36.8531479 L94.4656081,36.7780624 C94.2950648,36.7511296 94.1293483,36.7160354 93.9660451,36.6866541 C93.310419,36.5748421 92.7191488,36.4238551 92.2147592,36.305514 L91.5382174,36.1129036 L91.258269,36.031289 L91.0249788,35.9496744 L90.5857495,35.801952 L90.4715177,35.7635932 L90.3339569,35.7170728 L90.149738,35.6460682 C89.8746164,35.5350723 89.4731962,35.3930629 89.0050068,35.1718874 L88.6357646,35.0086583 L88.2480201,34.811151 C88.1152859,34.7417786 87.9753118,34.6748546 87.8369465,34.5981369 L87.4154151,34.3532931 L87.1974094,34.2284228 L86.981817,34.0904942 L86.5409788,33.8081077 L86.1041629,33.49634 C86.0317625,33.4424744 85.9553398,33.3926895 85.8845483,33.3331108 L85.6697603,33.1625364 C85.088331,32.7081384 84.5450725,32.2055724 84.0455773,31.6600119 C83.5731491,31.1500989 83.1424189,30.6020153 82.7576541,30.021191 C82.6659469,29.886527 82.585502,29.7494145 82.5050571,29.6131181 C82.4656391,29.5461941 82.4246122,29.4825348 82.3884119,29.4156108 C82.3522117,29.3486869 82.3216427,29.2964535 82.2894647,29.237691 C82.2379799,29.1454665 82.189713,29.0589551 82.150295,28.9773405 C82.0698501,28.8141113 82.0022763,28.6876087 81.9628583,28.5986488 C81.8067952,28.2721905 81.6861278,28.0273467 81.555807,27.788216 C81.4254862,27.5490853 81.2935566,27.3279098 81.1519735,27.0504202 Z" id="Path" stroke="#1D3382" stroke-width="0.5" fill="#1D3382" fill-rule="nonzero" transform="translate(92.146427, 32.548003) rotate(3.000000) translate(-92.146427, -32.548003) "></path>
                <path d="M87.6309487,35.4453782 C88.1546864,35.8242363 87.3584654,35.8818286 87.2444026,36.0954707 C87.1182346,36.3365057 87.0074286,36.583679 86.9125117,36.8358147 C86.8927091,36.8858761 86.8673618,36.9521545 86.8333014,37.0473416 L86.6748809,37.4379612 L86.4950737,37.8610149 C86.4317055,38.0076735 86.3762583,38.1268337 86.3762583,38.1268337 L86.2701166,38.3552827 C86.2075405,38.4814937 86.1314986,38.6373185 86.0768435,38.7451972 C85.9659492,38.9630698 85.8693127,39.1358168 85.794855,39.2740143 L85.6174241,39.5764977 C85.5382138,39.7175156 85.4590036,39.8345605 85.3972196,39.9509003 C85.3647434,40.0087176 85.3354356,40.0651248 85.3069199,40.1201218 C85.2784042,40.1751188 85.2467201,40.2258852 85.2189965,40.2787669 C85.1912729,40.3316486 85.1643414,40.3838253 85.1397863,40.4374121 C85.1152311,40.4909989 85.0898838,40.5459958 85.060576,40.5981725 C85.0035446,40.704641 84.9457211,40.8174553 84.8823529,40.9429613 C85.0019604,40.8604658 85.1128548,40.7814958 85.2189965,40.7018206 C85.2709301,40.6631948 85.3201342,40.6217507 85.3663276,40.5777249 C85.4130616,40.5347144 85.4590036,40.4909989 85.5049455,40.4458731 C85.5508875,40.4007474 85.5960373,40.3542115 85.6411872,40.3048552 C85.686337,40.255499 85.7259421,40.2019122 85.7687157,40.1469152 C85.863418,40.0267505 85.9496586,39.9014742 86.0269411,39.7718075 L86.2138773,39.4594529 C86.2930875,39.318435 86.389724,39.1393422 86.5045789,38.9158288 C86.5600261,38.8037196 86.6376521,38.6457796 86.7010203,38.5160431 L86.8071621,38.2819534 C86.8071621,38.2819534 86.8657776,38.1599729 86.9315222,38.011199 C86.9972667,37.8624251 87.0725164,37.6868578 87.1144978,37.5817994 L87.2729183,37.1841289 L87.3521286,36.9676665 C87.5417464,36.4780662 87.6360418,35.9632366 87.6309487,35.4453782 Z" id="Path" stroke="#1D3382" stroke-width="0.5" fill="#1D3382" fill-rule="nonzero"></path>
                <path d="M83.6689224,41.9747899 C83.1411096,42.1953953 82.6403119,42.4776825 82.176621,42.8159633 C82.0792287,42.8854619 81.9213589,42.9996953 81.5899109,43.2305587 C81.2176209,43.4917778 80.7125947,43.8264897 80.1549452,44.1891608 C79.5972957,44.5518319 79.0035168,44.9360716 78.4442965,45.2564045 C78.1654718,45.4161715 77.8945012,45.5575653 77.6431663,45.6702011 C77.4215713,45.7700402 77.1938449,45.8551615 76.9614201,45.9250294 L76.8200442,45.9649712 C76.7752752,45.9769537 76.741502,45.9825456 76.7014455,45.9921316 C76.6229033,46.004913 76.555357,46.0152978 76.4972358,46.0208897 C76.4391146,46.0264815 76.395131,46.0328722 76.3644995,46.0352687 L76.3173742,46.0392629 C76.3173742,46.0392629 76.1005978,46.0584349 75.7353767,46.0712163 C75.3701555,46.0839976 74.8596313,46.0895895 74.285488,46.0903883 L72.4554552,46.0855953 C72.1452135,46.0855953 71.8396845,46.0855953 71.557718,46.0760093 C71.2757516,46.0664233 71.0079228,46.0464524 70.764442,46.0176943 C70.4257839,45.9775819 70.0894243,45.9194536 69.7567458,45.8435483 C69.4205853,45.7636648 69.1558981,45.709344 68.8982798,45.6662069 C68.6406614,45.6230698 68.3932535,45.5903175 68.092437,45.5431863 C68.3122515,45.7143187 68.5470277,45.8645959 68.7938187,45.9921316 C69.0677932,46.1280515 69.3564232,46.2309982 69.6538555,46.2988843 C70.0027388,46.3815509 70.355964,46.4439609 70.7118187,46.4858117 C70.96551,46.5153686 71.2474764,46.537736 71.542795,46.547322 C71.8381136,46.556908 72.1436427,46.5537127 72.4530989,46.5561092 L74.2862734,46.5561092 C74.862773,46.5561092 75.3780097,46.5481208 75.7510851,46.5345406 C76.1241605,46.5209604 76.3558599,46.5009895 76.3558599,46.5009895 L76.4061269,46.4961965 C76.4383292,46.4961965 76.4846691,46.4898059 76.5506445,46.4818175 C76.6166199,46.4738292 76.6920204,46.4634443 76.7862711,46.4482664 C76.8333964,46.4378816 76.8868051,46.4274967 76.9362866,46.4139165 L77.093371,46.3707794 C77.3454255,46.2955533 77.5923228,46.2034871 77.8324529,46.0951813 C78.1018526,45.9753561 78.3822482,45.8267727 78.6744251,45.6622127 C79.2517101,45.3322938 79.8525578,44.9432611 80.4078511,44.5821877 C80.9631443,44.2211142 81.4799518,43.8808104 81.8553835,43.6171949 C82.1907586,43.3823373 82.3494138,43.2665063 82.4468061,43.1946111 C82.9157399,42.8571474 83.3283626,42.4452996 83.6689224,41.9747899 Z" id="Path" stroke="#1D3382" stroke-width="0.5" fill="#1D3382" fill-rule="nonzero"></path>
                <path d="M82.7488478,13.8346085 C83.0345495,14.4636339 83.7421799,15.0250698 83.7784934,15.1167536 C83.8420471,15.288348 84.1907273,15.5855344 84.3099504,15.7275316 C84.3508003,15.7770848 84.3946932,15.8242789 84.4413976,15.8688653 C84.4901555,15.9171798 84.5417718,15.9627866 84.5959926,16.0054614 C84.6505556,16.0512567 84.7109055,16.0899458 84.7712554,16.1333723 L84.9506518,16.2439125 L85.1374886,16.3599798 L85.3325925,16.4728888 C85.4640397,16.5518461 85.5996203,16.6308034 85.7385079,16.7097608 C86.294058,17.02559 86.8959039,17.3524734 87.4473205,17.6525112 C88.5542871,18.2517973 89.4719369,18.7381744 89.4719369,18.7381744 L91.2212583,19.6588168 L94.2561162,21.2490173 L94.26521,21.2537547 C94.1081348,21.5372115 94.0262904,21.6832826 93.9783411,21.7693461 C93.6919605,22.2768555 94.4569161,21.0581572 94.3258741,21.6209296 C94.7431262,21.2043287 94.121702,22.4963803 94.4049242,21.9872683 L94.9224456,21.0658363 L94.4900755,20.8408079 L91.4568711,19.2545553 L89.7092031,18.3291755 C89.7092031,18.3291755 88.79238,17.8427983 87.6895469,17.2443018 C87.1381304,16.9450536 86.5395913,16.6173807 85.9890014,16.3054993 C85.8509406,16.2265419 85.7186668,16.1475846 85.5888731,16.0741543 L85.397076,15.963614 L85.2185064,15.8530738 L85.0482038,15.7480606 C85.0010812,15.7125298 84.9514786,15.682526 84.9093163,15.6469952 C84.8676188,15.6144196 84.8281325,15.5793444 84.7910965,15.5419819 C84.7558386,15.5091575 84.7229692,15.4740714 84.6927179,15.4369687 C84.6061202,15.3347526 84.5768535,15.4251096 84.5299051,15.3015051 C84.1352244,14.7750989 83.8850591,14.4707916 83.7794092,14.3885831 C83.1943768,13.9333566 82.9281555,13.892434 82.7488478,13.8346085 Z" id="Path" stroke="#1D3382" stroke-width="0.5" fill="#1D3382" fill-rule="nonzero"></path>
                <path d="M89.4141444,77.2715847 C88.8408396,76.9502786 88.2176999,76.7170651 87.5677782,76.5805719 C87.4323234,76.5503401 87.2123231,76.5019692 86.7495952,76.4078187 C86.0832306,76.2670248 84.9577745,76.0441732 83.9959549,75.8696924 L83.3159539,75.7479014 L83.1750447,75.7228522 C83.1439114,75.7144662 83.1135157,75.7037805 83.0841354,75.6908928 C83.0235146,75.6657345 82.966412,75.6335294 82.9141352,75.5950148 C82.8401594,75.5399719 82.7783683,75.4715744 82.7323168,75.3937573 C82.715044,75.3661168 82.705044,75.3436589 82.6959531,75.3289749 L82.6859531,75.3039256 C82.6737682,75.277635 82.6637384,75.2504897 82.655953,75.2227316 C82.6321503,75.1428157 82.6187173,75.060435 82.615953,74.9774221 C82.616812,74.6657751 82.6852019,74.3576344 82.8168623,74.0721952 C82.9848347,73.6856505 83.1921852,73.3156377 83.4359541,72.9674384 L83.799591,72.4241296 C83.9159548,72.2513763 84.0232277,72.0786231 84.1214096,71.924009 C84.2805008,71.6648792 84.410501,71.4541203 84.5041375,71.2822308 C84.5977739,71.1103414 84.6695922,70.9859591 84.7150468,70.8978549 C84.8795463,70.5976453 85.0018055,70.2781955 85.0786837,69.9477122 C85.1119769,69.8009563 85.132952,69.6519201 85.1414111,69.502009 C85.1535294,69.3418832 85.1388004,69.180945 85.0977747,69.0252101 C85.0590408,69.1728518 85.0003723,69.3151136 84.923229,69.4484555 C84.8532289,69.5762928 84.7841378,69.6972201 84.7123196,69.8207386 C84.5705012,70.0677757 84.4232282,70.3286331 84.2414098,70.6680931 C84.1977734,70.7544698 84.1323187,70.8736695 84.0368641,71.037785 C83.9414094,71.2019006 83.819591,71.4074769 83.6641363,71.6605604 C83.5668634,71.8108557 83.4632269,71.9766987 83.3486813,72.149452 L82.9850444,72.688442 C82.7227819,73.0653849 82.4999048,73.4657706 82.3195889,73.8838942 C82.1609654,74.2352737 82.080791,74.6140999 82.084134,74.9964249 C82.0886519,75.1201861 82.1094186,75.2429269 82.1459523,75.361798 C82.1547706,75.3951394 82.166321,75.4277742 82.1804978,75.4594035 L82.1941342,75.4939542 L82.2114069,75.5336874 C82.2250433,75.5587366 82.2432252,75.5976061 82.2723161,75.6442495 C82.3531245,75.7778669 82.4605853,75.8952266 82.5886802,75.9897559 C82.6757733,76.0539266 82.7707029,76.1078705 82.8714079,76.1504164 C82.9301536,76.1755329 82.9909623,76.1960437 83.0532263,76.2117438 L83.217772,76.2419756 L83.8950457,76.3646304 C84.8523198,76.5373836 85.9723214,76.761099 86.6350496,76.8993016 L87.4450507,77.0720548 C88.2432337,77.2430805 88.7114161,77.2603558 89.4141444,77.2715847 Z" id="Path" stroke="#1D3382" stroke-width="0.5" fill="#1D3382" fill-rule="nonzero"></path>
            </g>
        </g>
    </g>
</svg>